<?xml version="1.0" encoding="UTF-8" standalone="no"?>
<!DOCTYPE svg PUBLIC "-//W3C//DTD SVG 1.1//EN"
 "http://www.w3.org/Graphics/SVG/1.1/DTD/svg11.dtd">
<!-- Generated by graphviz version 2.43.0 (0)
 -->
<!-- Title: %3 Pages: 1 -->
<svg width="884pt" height="260pt"
 viewBox="0.00 0.00 883.96 260.00" xmlns="http://www.w3.org/2000/svg" xmlns:xlink="http://www.w3.org/1999/xlink">
<g id="graph0" class="graph" transform="scale(1 1) rotate(0) translate(4 256)">
<title>%3</title>
<polygon fill="white" stroke="transparent" points="-4,4 -4,-256 879.96,-256 879.96,4 -4,4"/>
<!-- [root] aws_iam_user.lb (expand) -->
<g id="node1" class="node">
<title>[root] aws_iam_user.lb (expand)</title>
<polygon fill="none" stroke="black" points="426.14,-108 294.14,-108 294.14,-72 426.14,-72 426.14,-108"/>
<text text-anchor="middle" x="360.14" y="-86.3" font-family="Times,serif" font-size="14.00">aws_iam_user.lb</text>
</g>
<!-- [root] provider[&quot;registry.terraform.io/hashicorp/aws&quot;] -->
<g id="node2" class="node">
<title>[root] provider[&quot;registry.terraform.io/hashicorp/aws&quot;]</title>
<polygon fill="none" stroke="black" points="360.14,-36 34.87,-18 360.14,0 685.4,-18 360.14,-36"/>
<text text-anchor="middle" x="360.14" y="-14.3" font-family="Times,serif" font-size="14.00">provider[&quot;registry.terraform.io/hashicorp/aws&quot;]</text>
</g>
<!-- [root] aws_iam_user.lb (expand)&#45;&gt;[root] provider[&quot;registry.terraform.io/hashicorp/aws&quot;] -->
<g id="edge1" class="edge">
<title>[root] aws_iam_user.lb (expand)&#45;&gt;[root] provider[&quot;registry.terraform.io/hashicorp/aws&quot;]</title>
<path fill="none" stroke="black" d="M360.14,-71.7C360.14,-63.98 360.14,-54.71 360.14,-46.11"/>
<polygon fill="black" stroke="black" points="363.64,-46.1 360.14,-36.1 356.64,-46.1 363.64,-46.1"/>
</g>
<!-- [root] output.arns (expand) -->
<g id="node3" class="node">
<title>[root] output.arns (expand)</title>
<ellipse fill="none" stroke="black" cx="137.14" cy="-162" rx="137.28" ry="18"/>
<text text-anchor="middle" x="137.14" y="-158.3" font-family="Times,serif" font-size="14.00">[root] output.arns (expand)</text>
</g>
<!-- [root] output.arns (expand)&#45;&gt;[root] aws_iam_user.lb (expand) -->
<g id="edge2" class="edge">
<title>[root] output.arns (expand)&#45;&gt;[root] aws_iam_user.lb (expand)</title>
<path fill="none" stroke="black" d="M187.46,-145.2C219.5,-135.15 261.29,-122.03 295.74,-111.22"/>
<polygon fill="black" stroke="black" points="297.21,-114.42 305.71,-108.09 295.12,-107.74 297.21,-114.42"/>
</g>
<!-- [root] provider[&quot;registry.terraform.io/hashicorp/aws&quot;] (close) -->
<g id="node4" class="node">
<title>[root] provider[&quot;registry.terraform.io/hashicorp/aws&quot;] (close)</title>
<ellipse fill="none" stroke="black" cx="584.14" cy="-162" rx="291.65" ry="18"/>
<text text-anchor="middle" x="584.14" y="-158.3" font-family="Times,serif" font-size="14.00">[root] provider[&quot;registry.terraform.io/hashicorp/aws&quot;] (close)</text>
</g>
<!-- [root] provider[&quot;registry.terraform.io/hashicorp/aws&quot;] (close)&#45;&gt;[root] aws_iam_user.lb (expand) -->
<g id="edge3" class="edge">
<title>[root] provider[&quot;registry.terraform.io/hashicorp/aws&quot;] (close)&#45;&gt;[root] aws_iam_user.lb (expand)</title>
<path fill="none" stroke="black" d="M530.48,-144.23C498.68,-134.29 458.16,-121.63 424.62,-111.15"/>
<polygon fill="black" stroke="black" points="425.5,-107.76 414.91,-108.12 423.41,-114.44 425.5,-107.76"/>
</g>
<!-- [root] root -->
<g id="node5" class="node">
<title>[root] root</title>
<ellipse fill="none" stroke="black" cx="360.14" cy="-234" rx="58.49" ry="18"/>
<text text-anchor="middle" x="360.14" y="-230.3" font-family="Times,serif" font-size="14.00">[root] root</text>
</g>
<!-- [root] root&#45;&gt;[root] output.arns (expand) -->
<g id="edge4" class="edge">
<title>[root] root&#45;&gt;[root] output.arns (expand)</title>
<path fill="none" stroke="black" d="M320.78,-220.65C286.55,-209.9 236.41,-194.16 197.17,-181.84"/>
<polygon fill="black" stroke="black" points="198.03,-178.45 187.45,-178.79 195.94,-185.13 198.03,-178.45"/>
</g>
<!-- [root] root&#45;&gt;[root] provider[&quot;registry.terraform.io/hashicorp/aws&quot;] (close) -->
<g id="edge5" class="edge">
<title>[root] root&#45;&gt;[root] provider[&quot;registry.terraform.io/hashicorp/aws&quot;] (close)</title>
<path fill="none" stroke="black" d="M399.67,-220.65C433.13,-210.19 481.72,-195.01 520.63,-182.85"/>
<polygon fill="black" stroke="black" points="521.8,-186.15 530.3,-179.83 519.71,-179.47 521.8,-186.15"/>
</g>
</g>
</svg>
